# Alias OBJ Model File
# Exported from SketchUp, (c) 2000-2012 Trimble Navigation Limited
# File units = millimeters

mtllib cube.mtl

g Mesh1 Model

usemtl FrontColor
v 0 0 -0
vt 0 0
vn 0 -1 -0
v 0 0 -274.8
vt 0 10.8189
v 311.8 0 -274.8
vt -12.2756 10.8189
v 311.8 0 -0
vt -12.2756 0
f 1/1/1 2/2/1 3/3/1 4/4/1 

vt -10.8189 0
vn -1 0 -0
v 0 283.3 -0
vt 0 11.1535
v 0 283.3 -274.8
vt -10.8189 11.1535
f 2/5/2 1/1/2 5/6/2 6/7/2 

vn 0 0 1
vt 12.2756 0
v 311.8 283.3 -0
vt 12.2756 11.1535
f 1/1/3 4/8/3 7/9/3 5/6/3 

vn 1 0 -0
vt 10.8189 0
v 311.8 283.3 -274.8
vt 10.8189 11.1535
f 4/1/4 3/10/4 8/11/4 7/6/4 

vn 0 0 -1
vt -12.2756 11.1535
f 3/4/5 2/1/5 6/6/5 8/12/5 

vn 0 1 -0
vt 12.2756 10.8189
f 6/2/6 5/1/6 7/8/6 8/13/6 

